Coordinates
version=1
nRows=10
nColumns=63
inDegrees=yes

Units are S.I. units (second, meters, Newtons, ...)
If the header above contains a line with 'inDegrees', this indicates whether rotational values are in degrees (yes) or radians (no).

endheader
time	pelvis_tilt	pelvis_list	pelvis_rotation	pelvis_tx	pelvis_ty	pelvis_tz	hip_flexion_r	hip_adduction_r	hip_rotation_r	knee_angle_r	knee_angle_r_beta	ankle_angle_r	subtalar_angle_r	mtp_angle_r	hip_flexion_l	hip_adduction_l	hip_rotation_l	knee_angle_l	knee_angle_l_beta	ankle_angle_l	subtalar_angle_l	mtp_angle_l	L5_S1_Flex_Ext	L5_S1_Lat_Bending	L5_S1_axial_rotation	L4_L5_Flex_Ext	L4_L5_Lat_Bending	L4_L5_axial_rotation	L3_L4_Flex_Ext	L3_L4_Lat_Bending	L3_L4_axial_rotation	L2_L3_Flex_Ext	L2_L3_Lat_Bending	L2_L3_axial_rotation	L1_L2_Flex_Ext	L1_L2_Lat_Bending	L1_L2_axial_rotation	L1_T12_Flex_Ext	L1_T12_Lat_Bending	L1_T12_axial_rotation	Abs_r3	Abs_r2	Abs_r1	Abs_t1	Abs_t2	neck_flexion	neck_bending	neck_rotation	arm_flex_r	arm_add_r	arm_rot_r	elbow_flex_r	pro_sup_r	wrist_flex_r	wrist_dev_r	arm_flex_l	arm_add_l	arm_rot_l	elbow_flex_l	pro_sup_l	wrist_flex_l	wrist_dev_l
      2.30508475	      2.79370478	    -19.04060851	     94.95861580	      0.14274141	      1.02958990	      0.10523422	     23.52497434	     -0.66578529	     -5.36778051	     17.48065912	      0.30509506	     37.82683309	     -1.57880024	      0.00000000	     21.35418035	      3.27856895	     17.34103586	     12.54016495	      0.21886717	     30.72349984	    -17.53397006	      0.00000000	      0.00983243	      0.61831371	     -0.26196295	      0.01825981	      0.82235724	     -0.27833563	      0.01615370	      1.50336797	     -0.27833563	      0.01123749	      1.50336797	     -0.22921758	      0.00913040	      1.26086533	     -0.21284490	      0.00561825	      0.95776794	     -0.19647221	      0.07023208	      6.99448841	     -1.45695933	      0.00000000	      0.00000000	     27.39332044	     -9.80843199	    -15.60608217	      1.90068791	    -17.16763830	     25.16900769	     34.96246975	     76.06431148	     -9.85817601	      1.04215059	     12.12817661	    -28.79549355	     15.82210487	    106.73534804	     89.21996620	     11.43963894	     19.41792988
      2.32203390	      2.60441101	    -18.63637832	     95.28099389	      0.14301949	      1.03046892	      0.10318425	     22.79347410	     -0.82413031	     -5.39785233	     17.17620035	      0.29978125	     38.03133614	     -1.59171859	      0.00000000	     20.61177627	      3.42817140	     17.47616920	     12.11421973	      0.21143302	     30.66356656	    -17.30939941	      0.00000000	      0.06059569	      0.58797016	     -0.34951614	      0.11253225	      0.78200031	     -0.37136090	      0.09955265	      1.42959065	     -0.37136090	      0.06925481	      1.42959065	     -0.30582663	      0.05626915	      1.19898875	     -0.28398187	      0.03462437	      0.91076578	     -0.26213711	      0.43282892	      6.65123603	     -1.94390394	      0.00000000	      0.00000000	     27.63571122	    -10.05436140	    -14.41657908	      2.61569113	    -17.21396785	     27.65706714	     34.40668234	     76.47812598	     -8.74271415	      1.35823624	     11.94895236	    -28.86890320	     19.31142195	    102.28150455	     89.09562559	     12.35784902	     21.59216761
      2.33898305	      2.67275719	    -18.01591200	     95.54890306	      0.14287270	      1.03178783	      0.10045251	     21.70417702	     -0.74747850	     -5.78368742	     16.65858600	      0.29074717	     38.41150732	     -0.94308830	      0.00000000	     19.52576090	      3.30197737	     17.87001352	     11.54122709	      0.20143241	     30.53696434	    -17.40732482	      0.00000000	      0.09225866	      0.59744292	     -0.53050659	      0.17133356	      0.79459909	     -0.56366325	      0.15157175	      1.45262272	     -0.56366325	      0.10544242	      1.45262272	     -0.46419326	      0.08567139	      1.21830560	     -0.43103660	      0.05271660	      0.92543908	     -0.39787994	      0.65899439	      6.75839381	     -2.95051848	      0.00000000	      0.00000000	     27.89899961	     -9.83253825	    -12.06874102	      4.61062600	    -17.98786768	     35.51836137	     33.22086515	     70.96293625	     -8.70856178	      0.43219672	     11.18476995	    -28.21733791	     21.16170569	     97.88465271	     88.82240498	     14.66225746	     24.93436703
      2.35593220	      2.74023764	    -17.43673585	     95.61577635	      0.14305021	      1.03322882	      0.09810558	     20.66879762	     -0.55817693	     -5.75593855	     16.04782487	      0.28008738	     38.56739055	     -0.74237177	      0.00000000	     18.52962989	      3.09997393	     17.81327259	     11.02038777	      0.19234205	     30.38394616	    -17.29218677	      0.00000000	      0.12895666	      0.60841260	     -0.57481208	      0.23948541	      0.80918876	     -0.61073783	      0.21186289	      1.47929439	     -0.61073783	      0.14738456	      1.47929439	     -0.50296057	      0.11974915	      1.24067497	     -0.46703481	      0.07368583	      0.94243112	     -0.43110906	      0.92112452	      6.88248500	     -3.19693234	      0.00000000	      0.00000000	     28.04835448	    -10.48530821	    -10.55763067	      5.71247924	    -18.21556411	     39.05904202	     32.67869090	     70.66392010	     -7.84593269	      0.91693274	     11.46929125	    -27.90320174	     24.79924860	     92.93256084	     88.51565118	     13.02770555	     24.39351646
      2.37288136	      2.66406811	    -17.04012023	     95.63856796	      0.14348590	      1.03440173	      0.09622032	     19.92007968	     -0.56823092	     -5.96665609	     15.62986319	      0.27279257	     38.86183074	     -0.23689019	      0.00000000	     17.85410594	      3.07643942	     17.80306735	     10.77549307	      0.18806783	     30.31736227	    -17.21468494	      0.00000000	      0.19147930	      0.59800866	     -0.62005197	      0.35559621	      0.79535152	     -0.65880522	      0.31458135	      1.45399826	     -0.65880522	      0.21884170	      1.45399826	     -0.54254547	      0.17780768	      1.21945927	     -0.50379222	      0.10941127	      0.92631542	     -0.46503898	      1.36771751	      6.76479360	     -3.44854303	      0.00000000	      0.00000000	     28.13807332	    -11.12266316	     -9.16889772	      7.35645084	    -18.51503012	     45.13354124	     32.11302225	     66.95583926	     -7.88607335	      0.98655564	     11.99344647	    -27.92156556	     28.86911530	     88.48981976	     88.34714256	      9.36348312	     22.55620881
      2.38983051	      2.75062846	    -16.50227013	     95.60096577	      0.14390620	      1.03590774	      0.09472976	     19.01705210	     -0.35544530	     -5.92906556	     15.13958591	      0.26423562	     38.98057791	     -0.01744473	      0.00000000	     17.05680924	      2.85524058	     17.48695404	     10.52077090	      0.18362209	     30.18915042	    -17.12566681	      0.00000000	      0.22072130	      0.61590511	     -0.58681241	      0.40990153	      0.81915380	     -0.62348818	      0.36262303	      1.49751170	     -0.62348818	      0.25226238	      1.49751170	     -0.51346086	      0.20496180	      1.25595371	     -0.47678508	      0.12612015	      0.95403702	     -0.44010931	      1.57659020	      6.96724184	     -3.26367457	      0.00000000	      0.00000000	     28.18804943	    -12.14581900	     -8.08321041	      8.44074445	    -18.61931888	     48.16419142	     31.99770122	     68.16832521	     -7.79136783	      1.61916524	     12.88214324	    -27.21794739	     32.23364664	     84.01951524	     88.36338724	      8.31985545	     20.54171899
      2.40677966	      2.74956252	    -16.08031970	     95.61719891	      0.14445042	      1.03731724	      0.09377544	     18.28921958	     -0.29796158	     -6.17071177	     14.76816013	      0.25775302	     39.03129478	      0.45832572	      0.00000000	     16.51587351	      2.76229171	     16.96829903	     10.51360191	      0.18349697	     30.07556606	    -16.99629379	      0.00000000	      0.25294314	      0.61962375	     -0.53620382	      0.46974070	      0.82409959	     -0.56971656	      0.41556028	      1.50655319	     -0.56971656	      0.28908871	      1.50655319	     -0.46917834	      0.23488300	      1.26353675	     -0.43566560	      0.14453171	      0.95979719	     -0.40215287	      1.80674754	      7.00930780	     -2.98220479	      0.00000000	      0.00000000	     28.19978518	    -13.23706694	     -7.39753933	      9.48386820	    -18.59883619	     51.43390147	     31.99381963	     69.71275895	     -8.24798872	      1.98319058	     13.78674490	    -26.68300471	     35.96761523	     80.30347519	     88.64862764	      4.91799989	     17.13455113
      2.42372881	      2.78663712	    -15.57272420	     95.58480709	      0.14513430	      1.03896809	      0.09303154	     17.44396914	     -0.15842315	     -6.36437329	     14.31265631	      0.24980298	     38.90200317	      0.82660783	      0.00000000	     15.94685293	      2.60946637	     16.34968425	     10.63261538	      0.18557415	     30.13992073	    -16.79336273	      0.00000000	      0.25470328	      0.62637526	     -0.46544516	      0.47300946	      0.83307910	     -0.49453548	      0.41845202	      1.52296881	     -0.49453548	      0.29110038	      1.52296881	     -0.40726451	      0.23651747	      1.27730444	     -0.37817419	      0.14553746	      0.97025528	     -0.34908387	      1.81932007	      7.08568225	     -2.58866633	      0.00000000	      0.00000000	     28.18260731	    -14.16959466	     -6.96850105	     10.53156578	    -18.47194492	     54.56453999	     32.12204354	     73.17839486	     -8.60789228	      2.34690958	     14.01853121	    -25.41926953	     37.68231599	     77.17665969	     88.88623419	      4.10455026	     15.32362079
      2.44067797	      2.86751532	    -14.91913667	     95.47403076	      0.14583803	      1.04088211	      0.09241466	     16.46670809	      0.06435680	     -6.43974848	     13.87380133	      0.24214351	     38.67388109	      1.12614651	      0.00000000	     15.28748886	      2.39503887	     15.68922471	     10.87206534	      0.18975334	     30.26437467	    -16.69999272	      0.00000000	      0.21926740	      0.63957480	     -0.37072919	      0.40720148	      0.85063448	     -0.39389976	      0.36023440	      1.55506216	     -0.39389976	      0.25060071	      1.55506216	     -0.32438804	      0.20361170	      1.30422093	     -0.30121746	      0.12528939	      0.99070136	     -0.27804689	      1.56620508	      7.23499802	     -2.06188451	      0.00000000	      0.00000000	     28.13523686	    -14.84364592	     -6.46903841	     11.63197696	    -18.22920543	     57.65487663	     32.26915069	     76.66217606	     -8.11364405	      2.83063302	     13.68650122	    -23.52226929	     38.02228785	     74.44408752	     89.04379551	      3.91764127	     14.23543571
      2.45762712	      2.88222412	    -14.47009121	     95.61913654	      0.14627156	      1.04234338	      0.09147092	     15.65625440	      0.12365221	     -6.96678283	     13.46291690	      0.23497223	     38.55795987	      1.48468631	      0.00000000	     14.84474303	      2.31001354	     14.93088836	     11.10145490	      0.19375694	     30.49000414	    -16.34228165	      0.00000000	      0.21700180	      0.64322689	     -0.40239359	      0.40299404	      0.85549176	     -0.42754319	      0.35651225	      1.56394185	     -0.42754319	      0.24801135	      1.56394185	     -0.35209439	      0.20150787	      1.31166827	     -0.32694479	      0.12399483	      0.99635845	     -0.30179520	      1.55002213	      7.27631118	     -2.23799245	      0.00000000	      0.00000000	     28.08165873	    -14.28121029	     -4.76642067	     12.54664747	    -17.40591734	     60.06151340	     32.08570591	     81.64118321	     -7.50869332	      3.02520120	     12.07832295	    -21.19971773	     36.58319812	     71.93039054	     89.14314408	      3.00575502	     11.50952323
